<svg width="221" height="40" viewBox="0 0 221 40" fill="none" xmlns="http://www.w3.org/2000/svg">
<rect x="0.5" y="0.5" width="39" height="39" stroke="#CDCDCD"/>
<path d="M64.32 29.18C63.1733 29.18 62.28 28.94 61.64 28.46C61.0133 27.98 60.5733 27.3333 60.32 26.52C60.08 25.7067 59.96 24.8 59.96 23.8V18.08C59.96 16.9867 60.08 16.0333 60.32 15.22C60.5733 14.4067 61.0133 13.78 61.64 13.34C62.28 12.8867 63.1733 12.66 64.32 12.66C65.3333 12.66 66.1333 12.8467 66.72 13.22C67.32 13.5933 67.7467 14.1267 68 14.82C68.2667 15.5133 68.4 16.3467 68.4 17.32V18.6H66.26V17.46C66.26 16.86 66.2267 16.3333 66.16 15.88C66.1067 15.4133 65.9467 15.0533 65.68 14.8C65.4133 14.5467 64.9667 14.42 64.34 14.42C63.7 14.42 63.2333 14.56 62.94 14.84C62.6467 15.1067 62.4533 15.4933 62.36 16C62.28 16.4933 62.24 17.0733 62.24 17.74V24.16C62.24 24.9733 62.3067 25.62 62.44 26.1C62.5733 26.5667 62.7933 26.9 63.1 27.1C63.4067 27.3 63.82 27.4 64.34 27.4C64.9533 27.4 65.3933 27.2667 65.66 27C65.9267 26.72 66.0933 26.34 66.16 25.86C66.2267 25.38 66.26 24.82 66.26 24.18V22.98H68.4V24.18C68.4 25.1667 68.28 26.04 68.04 26.8C67.8 27.5467 67.3867 28.1333 66.8 28.56C66.2133 28.9733 65.3867 29.18 64.32 29.18ZM69.673 29L73.113 12.8H75.293L78.753 29H76.613L75.873 24.92H72.573L71.793 29H69.673ZM72.873 23.3H75.573L74.213 16L72.873 23.3ZM79.3967 29L82.7767 20.52L79.4567 12.8H81.5567L84.0167 18.52L86.2567 12.8H88.3567L84.9567 20.7L88.5167 29H86.4167L83.7767 22.9L81.4967 29H79.3967ZM89.1652 29L92.6052 12.8H94.7852L98.2452 29H96.1052L95.3652 24.92H92.0652L91.2852 29H89.1652ZM92.3652 23.3H95.0652L93.7052 16L92.3652 23.3ZM99.8889 29V12.8H103.909C104.882 12.8 105.656 12.98 106.229 13.34C106.816 13.6867 107.242 14.1933 107.509 14.86C107.776 15.5267 107.909 16.3333 107.909 17.28C107.909 18.1333 107.756 18.8733 107.449 19.5C107.156 20.1267 106.716 20.6133 106.129 20.96C105.542 21.2933 104.809 21.46 103.929 21.46H102.149V29H99.8889ZM102.149 19.84H103.189C103.842 19.84 104.356 19.7667 104.729 19.62C105.102 19.4733 105.369 19.22 105.529 18.86C105.689 18.4867 105.769 17.9667 105.769 17.3C105.769 16.5267 105.709 15.9333 105.589 15.52C105.482 15.1067 105.249 14.82 104.889 14.66C104.529 14.5 103.969 14.42 103.209 14.42H102.149V19.84ZM113.638 29.18C112.545 29.18 111.672 28.9667 111.018 28.54C110.365 28.1133 109.898 27.5067 109.618 26.72C109.338 25.92 109.198 24.9867 109.198 23.92V17.78C109.198 16.7133 109.338 15.8 109.618 15.04C109.912 14.2667 110.378 13.68 111.018 13.28C111.672 12.8667 112.545 12.66 113.638 12.66C114.732 12.66 115.598 12.8667 116.238 13.28C116.878 13.6933 117.338 14.28 117.618 15.04C117.912 15.8 118.058 16.7133 118.058 17.78V23.94C118.058 24.9933 117.912 25.9133 117.618 26.7C117.338 27.4867 116.878 28.1 116.238 28.54C115.598 28.9667 114.732 29.18 113.638 29.18ZM113.638 27.4C114.238 27.4 114.692 27.28 114.998 27.04C115.305 26.7867 115.512 26.44 115.618 26C115.725 25.5467 115.778 25.02 115.778 24.42V17.32C115.778 16.72 115.725 16.2067 115.618 15.78C115.512 15.34 115.305 15.0067 114.998 14.78C114.692 14.54 114.238 14.42 113.638 14.42C113.038 14.42 112.578 14.54 112.258 14.78C111.952 15.0067 111.745 15.34 111.638 15.78C111.532 16.2067 111.478 16.72 111.478 17.32V24.42C111.478 25.02 111.532 25.5467 111.638 26C111.745 26.44 111.952 26.7867 112.258 27.04C112.578 27.28 113.038 27.4 113.638 27.4ZM123.82 29.18C122.94 29.18 122.206 29.0133 121.62 28.68C121.033 28.3467 120.593 27.8667 120.3 27.24C120.006 26.6133 119.86 25.8733 119.86 25.02V24.48H121.98C121.98 24.5733 121.98 24.6733 121.98 24.78C121.98 24.8733 121.986 24.96 122 25.04C122.026 25.7333 122.16 26.3 122.4 26.74C122.64 27.18 123.113 27.4 123.82 27.4C124.34 27.4 124.733 27.28 125 27.04C125.266 26.7867 125.446 26.44 125.54 26C125.633 25.5467 125.68 25.0267 125.68 24.44C125.68 23.6 125.493 22.9 125.12 22.34C124.746 21.78 124.04 21.4667 123 21.4C122.946 21.3867 122.88 21.38 122.8 21.38C122.733 21.38 122.66 21.38 122.58 21.38C122.513 21.38 122.446 21.38 122.38 21.38V19.66C122.433 19.66 122.493 19.66 122.56 19.66C122.64 19.66 122.713 19.66 122.78 19.66C122.86 19.6467 122.92 19.64 122.96 19.64C123.986 19.5733 124.693 19.3067 125.08 18.84C125.48 18.36 125.68 17.6933 125.68 16.84C125.68 16.1067 125.533 15.52 125.24 15.08C124.96 14.6267 124.453 14.4 123.72 14.4C123.013 14.4 122.506 14.6267 122.2 15.08C121.893 15.52 121.713 16.1 121.66 16.82C121.66 16.9 121.66 16.9867 121.66 17.08C121.66 17.16 121.66 17.2467 121.66 17.34H119.52V16.8C119.52 15.9333 119.68 15.1933 120 14.58C120.32 13.9667 120.786 13.4933 121.4 13.16C122.013 12.8267 122.76 12.66 123.64 12.66C124.533 12.66 125.286 12.8333 125.9 13.18C126.526 13.5133 127 13.9933 127.32 14.62C127.653 15.2333 127.82 15.9733 127.82 16.84C127.82 17.8133 127.606 18.6067 127.18 19.22C126.766 19.8333 126.206 20.24 125.5 20.44C125.98 20.6 126.393 20.8533 126.74 21.2C127.086 21.5467 127.353 21.9933 127.54 22.54C127.726 23.0733 127.82 23.7067 127.82 24.44C127.82 25.4 127.686 26.24 127.42 26.96C127.153 27.6667 126.726 28.2133 126.14 28.6C125.553 28.9867 124.78 29.18 123.82 29.18ZM129.009 29L132.449 12.8H134.629L138.089 29H135.949L135.209 24.92H131.909L131.129 29H129.009ZM132.209 23.3H134.909L133.549 16L132.209 23.3ZM139.693 29L139.993 12.8H142.213L145.073 25.94L147.953 12.8H150.153L150.453 29H148.633L148.453 17.24L145.713 29H144.433L141.713 17.24L141.533 29H139.693ZM152.936 29V12.8H159.216V14.48H155.196V19.84H158.456V21.44H155.196V27.38H159.256V29H152.936ZM161.08 29V12.8H163.34V19.8H167.5V12.8H169.76V29H167.5V21.42H163.34V29H161.08ZM172.291 29V12.8H174.291V24.02L179.031 12.8H180.651V29H178.671V17.6L173.971 29H172.291ZM184.97 29V14.48H182.23V12.8H189.89V14.48H187.23V29H184.97ZM191.451 29V12.8H197.731V14.48H193.711V19.84H196.971V21.44H193.711V27.38H197.771V29H191.451ZM198.376 29V27.32C198.669 27.3333 198.936 27.3133 199.176 27.26C199.429 27.2067 199.649 27.08 199.836 26.88C200.036 26.68 200.209 26.3667 200.356 25.94C200.503 25.5133 200.629 24.9333 200.736 24.2C200.843 23.4667 200.936 22.54 201.016 21.42L201.556 12.8H208.676V29H206.416V14.48H203.496L203.116 21.42C203.049 22.46 202.963 23.4 202.856 24.24C202.749 25.0667 202.589 25.7933 202.376 26.42C202.176 27.0333 201.903 27.5467 201.556 27.96C201.223 28.36 200.796 28.6467 200.276 28.82C199.756 28.9933 199.123 29.0533 198.376 29ZM211.217 29V12.8H213.477V19.54H214.117C215.29 19.54 216.257 19.68 217.017 19.96C217.777 20.2267 218.344 20.7 218.717 21.38C219.104 22.06 219.297 23.02 219.297 24.26C219.297 25.1 219.197 25.82 218.997 26.42C218.797 27.0067 218.484 27.4933 218.057 27.88C217.644 28.2667 217.117 28.5533 216.477 28.74C215.85 28.9133 215.097 29 214.217 29H211.217ZM213.477 27.38H214.217C214.897 27.38 215.45 27.3067 215.877 27.16C216.317 27 216.644 26.6933 216.857 26.24C217.07 25.7867 217.177 25.12 217.177 24.24C217.177 23.1333 216.964 22.3467 216.537 21.88C216.11 21.4133 215.324 21.18 214.177 21.18H213.477V27.38Z" fill="black"/>
<path d="M18 24.718L12.3 18.2695L11.25 19.4574L18 27.0938L29.25 14.3665L28.2 13.0938L18 24.718Z" fill="#68B738"/>
</svg>
